<svg xmlns="http://www.w3.org/2000/svg" viewBox="0 0 700 700"><rect width="700" height="700" style="fill:#668473"/><path d="M281.85,224a2,2,0,1,1-3.3,2.36,2,2,0,0,1,3.3-2.36" style="fill:#fff"/><path d="M267.39,230.24a2,2,0,1,1-3.3,2.36,2,2,0,0,1,3.3-2.36" style="fill:#fff"/><path d="M282.21,238.6a2.4,2.4,0,0,1-3.91,2.8,2.4,2.4,0,1,1,3.91-2.8" style="fill:#fff"/><path d="M267.49,284.58a2.4,2.4,0,0,1-3.91,2.8,2.4,2.4,0,0,1,3.91-2.8" style="fill:#fff"/><path d="M286.45,306.19c2.36,3.29-2.58,6.83-4.94,3.53s2.58-6.82,4.94-3.53" style="fill:#fff"/><path d="M289.12,133.87q-27.31,2.34-54.67,4.29l-1.37.1-.14,1.4c-.84,8.15-1.53,16.31-2,24.47s-1.17,16.32-1.56,24.49l-.5,24.53q-.1,7.56-.23,15.13l0,3.3c0,2-.1,4.08-.1,6.12l2.18,49.1c.18,8.08.95,16.65,3.92,24.95a67,67,0,0,0,12.94,22.17,74.87,74.87,0,0,0,9.28,8.88c.47.38,1,.7,1.44,1.06-2.56-.63,4.22,4.47,7.86,5.28l.06,0,.31.23.62.44c.79.6,1.73,1.18,2.42,1.79.44.62.89,1.19,1.37,1.75,1.06,1,1.64,2.87,2.55,4.22.91,2.6,1.26,7.09,1.66,11.09,1.71,16.23,3.21,32.48,5.09,48.69L285.87,466l1.49,11.93a8,8,0,0,1-.92,4.82,7.62,7.62,0,0,1-3.51,3.27,8.62,8.62,0,0,1-2.36.72l-3.06.45-6.05.85a25.37,25.37,0,0,0-6.36,1.43,5.27,5.27,0,0,0-3.06,2.81,5.07,5.07,0,0,0,0,2.19l.12.75.05.39a2.86,2.86,0,0,0,.39,1l.36.6.81-.08c10-1.08,20-2.29,30-3.25l30-2.92.31,0,.06-.21a6.62,6.62,0,0,0,0-1.82,3.65,3.65,0,0,0-.1-.9,2.66,2.66,0,0,0-.3-.77c-.82-1.26-2-1.39-3.07-1.65a25.7,25.7,0,0,0-6.44,0l-5.9.32c-1.93.05-4,.4-5.79-.15a9.38,9.38,0,0,1-7-8L294,454.11,291.4,406.8l-1.26-23.66-1.35-23.25c.29-1.83.1-4.28.88-5.48l.77-2.18,1.33-2.18A6.86,6.86,0,0,1,293.3,348c3.9-1.15,8.27-7.79,7.89-7.55a71.61,71.61,0,0,0,12.7-18.24,66.47,66.47,0,0,0,6.3-23.83,67.46,67.46,0,0,0-.25-12.38l-1.63-11.73-6.74-46.9c-3.19-15.53-6.35-31.05-9.29-46.59l-1.18-5s0,0,0,0L298.87,166l-.05.15-2-8.52q-2.3-10-4.93-20l-2.74-3.82Zm10.77,47.37c2.83,15.51,5.43,31,8,46.55l5.11,47.1,1.29,11.77a63.06,63.06,0,0,1,.1,11.25,60.56,60.56,0,0,1-6,21.61,73.36,73.36,0,0,1-13.09,18.38c-1.34,1.33-2.7,2.59-4.09,3.76a42.65,42.65,0,0,0-3.61,3.9,60.16,60.16,0,0,1-13.51.69l-.37-.42c-.85-.71-1.66-1.22-2.49-1.85l-.62-.45-.31-.22-.16-.11-.58-.36-1.15-.66c-.8-.49-1.61-1-2.41-1.54-1.59-1.07-3.14-2.23-4.64-3.46a67.59,67.59,0,0,1-8.34-8.06,60,60,0,0,1-11.82-19.7c-2.67-7.08-3.58-14.93-3.85-23.13l-2.84-48.68c0-3.11,0-6.21-.06-9.31,8.21-4.67,17.72-10.29,27-16.29,6.11-3.9,12.3-7.73,17.79-11.82,2.65-2.15,5.27-4.19,7.55-6.38a87,87,0,0,0,6.29-6.34,54.76,54.76,0,0,0,6.26-8.29Zm-5.14-23.08h0l3.78,17a93.31,93.31,0,0,1-9.34,8.08l-14.47,11c-5.22,4.15-10.73,8.74-16.47,13-8.18,6-16.46,11.93-23.78,17-.06-11.82-.06-23.65-.19-35.49.12-8.13.5-16.26.75-24.4.17-7.7.61-15.37,1.16-23q26.49-2.79,53-5.19C291.2,143.44,293.18,150.74,294.75,158.16Z" style="fill:#fff"/><path d="M415,350.76a2.59,2.59,0,0,1-3.8-3.53,2.59,2.59,0,1,1,3.8,3.53" style="fill:#fff"/><path d="M403.81,304a2,2,0,0,1-3-2.76,2,2,0,0,1,3,2.76" style="fill:#fff"/><path d="M421.55,304.56a2,2,0,1,1-3-2.75,2,2,0,1,1,3,2.75" style="fill:#fff"/><path d="M405.79,318.56a2,2,0,1,1-3-2.76,2,2,0,1,1,3,2.76" style="fill:#fff"/><path d="M417.35,549a3.4,3.4,0,0,0,.49-1.08l.08-.37.15-.75a5.3,5.3,0,0,0,.05-2.32,5.52,5.52,0,0,0-3.09-3.12,25.12,25.12,0,0,0-6.36-1.75l-6-1.14-3.05-.59a8.84,8.84,0,0,1-2.21-.8,7.24,7.24,0,0,1-3.18-3.27,7.62,7.62,0,0,1-.63-4.64l2-11.81c2.81-16.08,5.23-32.22,7.87-48.32l7.3-48.41c.57-4,1.19-8.52,2.07-10.78.92-1.23,1.57-3.08,2.57-3.88a20.13,20.13,0,0,0,1.29-1.58c.28-.23.66-.46,1-.69l7.21-4.91c.4-.11.8-.17,1.2-.29a16,16,0,0,0,3-2l.67-.46c1.31-1,2.57-2,3.83-3.1l.47-.35-.23.15a62.71,62.71,0,0,0,5.64-5.3,67.39,67.39,0,0,0,14-21.84c3.36-8.29,4.48-16.9,5-25l3.7-43.37.33-3.82.15-1.8c.33-8.18.4-16.38.6-24.56l.47-24.55c-.07-8.18-.41-16.37-.6-24.55s-.52-16.35-1-24.54l-.11-1.69-1.62-.18q-27.15-3-54.24-6.46l-3.28,3.54q-3.11,10-5.83,20.06l-6.41,22.84-2.31,9h.07l-9.22,37.14-8.87,46.54-2.18,11.64a69.88,69.88,0,0,0-.84,12.49,65.18,65.18,0,0,0,5.35,24.3,73.22,73.22,0,0,0,12.07,18.91l-.49-.28s4.36,6.71,7.66,7.71c2.51.77,5.26,1.89,8.3,2.75a73.38,73.38,0,0,1-8.3-2.75,7.66,7.66,0,0,1,1.78,2.48l1.21,2.16c.19.71.4,1.4.65,2.09.74,1.1.45,3.62.66,5.43L395,422.48l-1.07,11.8-2.15,23.59-4.36,47.18-2.51,23.53a9.29,9.29,0,0,1-7.27,7.62c-3.75.52-7.75-.46-11.66-.65a26.69,26.69,0,0,0-6.45-.24c-1.07.22-2.27.3-3.17,1.55a2.43,2.43,0,0,0-.32.76,3.84,3.84,0,0,0-.15.9,6,6,0,0,0,0,1.83l0,.24.34,0c19.94,2.65,39.82,5.75,59.68,8.92l.95.15ZM392,238.37h0c.45-2,.85-4.09,1.3-6.13l6.14-22.83c1.89-7.27,4.14-14.42,6.45-21.54q26.14,3.51,52.24,7.44c.2,7.58.3,15.16.13,22.77-.14,8.14-.12,16.28-.37,24.41-.86,15.35-1.45,30.68-2.3,46-6.22-4.48-12.84-9.33-19.4-14.27-6.24-4.74-12.24-9.78-17.93-14.35s-11.16-8.58-15.73-12.14a100.79,100.79,0,0,1-10.4-9.19Zm-.81,3.83a60,60,0,0,0,7.37,9.73c2,2.26,4.33,4.57,6.86,6.89s5.33,4.6,8.2,7c5.95,4.51,12.63,8.78,19.22,13.13,7.6,5,15.29,9.85,22.41,14.18l-4.75,46.58c-.62,8.19-1.88,15.93-4.8,22.76a59.3,59.3,0,0,1-12.53,18.94h0a66,66,0,0,1-8.6,7.59c-1.54,1.14-3.13,2.23-4.74,3.21-.81.5-1.62,1-2.44,1.41l-1.14.58-.69.38-.16.11-.31.21-.65.42c-.86.59-1.68,1.05-2.57,1.75-.92.87-1.82,1.79-2.7,2.73a60.24,60.24,0,0,1-9.54-2c-.88-2-2.71-3.69-4.23-5.44-1.31-1.2-2.6-2.5-3.87-3.88a72.5,72.5,0,0,1-12.15-18.76,61.93,61.93,0,0,1-5-21.62,63.3,63.3,0,0,1,.48-11.11l1.75-11.71,6.92-46.86q3.73-18.1,7.65-36.23" style="fill:#fff"/></svg>