<svg xmlns="http://www.w3.org/2000/svg" viewBox="0 0 512 512"><rect x="101.49" y="102.3" width="307.21" height="307.21" rx="17.95" transform="translate(511 0.81) rotate(90)" style="fill:#bac8c0"/><rect x="102.06" y="102.19" width="307.21" height="307.21" rx="17.95" transform="translate(386.82 -81.25) rotate(66.25)" style="fill:#89a093"/><rect x="102.08" y="102.19" width="307.21" height="307.21" rx="17.95" transform="translate(255.77 -105.88) rotate(45)" style="fill:#668473"/><path d="M302.8,287.89v50.2H186.08v-2.72c10.39,0,12.61-6.93,12.61-23.74V186.51c0-15.34-1.73-19.79-12.61-19.79V164h113.5v43.28h-2.72c-1.23-40.06-31.9-40.56-62.06-40.56H219v82.1h19.78c9.89,0,30.67-.25,31.41-24.48h2.72v51.93h-2.72c-.74-24.48-22-24.73-31.41-24.73H219v83.83h12.61c33.14,0,66,1.73,68.5-47.48Z" style="fill:#fff"/></svg>