<svg xmlns="http://www.w3.org/2000/svg" viewBox="0 0 512 512"><rect x="106.08" y="108.04" width="307.21" height="307.21" rx="17.95" transform="translate(521.33 1.96) rotate(90)" style="fill:#bac8c0"/><rect x="106.04" y="108.17" width="307.21" height="307.21" rx="17.95" transform="translate(394.66 -81.32) rotate(66.25)" style="fill:#89a093"/><rect x="106.06" y="108.17" width="307.21" height="307.21" rx="17.95" transform="translate(261.16 -106.94) rotate(45)" style="fill:#668473"/><path d="M218,275.83v28.72H148.51v-1.79c5.8,0,7.46-5,7.46-14.37V222.11c0-8.56-1.38-13-7.46-13v-1.8h67.67v24.86h-1.8c-1.65-22.79-25.55-23.06-36.73-23.06h-7.46v45.43h9c3.73,0,18.36,0,19.05-13.95H200V270.3h-1.8c-.69-13.81-15.6-13.94-19.05-13.94h-9v46.4h6.35c12.29,0,36.74.69,39.64-26.93Z" style="fill:#fff"/><path d="M271.48,256.56h-14V271H254V256.56H240V253h14V238.62h3.5V253h14Z" style="fill:#fff;stroke:#fff;stroke-miterlimit:10;stroke-width:4px"/><path d="M359,275.83v28.72H289.54v-1.79c5.8,0,7.45-5,7.45-14.37V222.11c0-8.56-1.38-13-7.45-13v-1.8h67.67v24.86h-1.8c-1.66-22.79-25.55-23.06-36.73-23.06h-7.46v45.43h9c3.72,0,18.36,0,19.05-13.95h1.8V270.3h-1.8c-.69-13.81-15.6-13.94-19.05-13.94h-9v46.4h6.35c12.29,0,36.73.69,39.64-26.93Z" style="fill:#fff"/></svg>