<?xml version="1.0" encoding="utf-8"?>
<!-- Generator: Adobe Illustrator 25.4.1, SVG Export Plug-In . SVG Version: 6.00 Build 0)  -->
<svg version="1.1" id="Layer_1" xmlns="http://www.w3.org/2000/svg" xmlns:xlink="http://www.w3.org/1999/xlink" x="0px" y="0px"
	 viewBox="0 0 175 640" style="enable-background:new 0 0 175 640;" xml:space="preserve">
<style type="text/css">
	.st0{fill:#678473;}
</style>
<g transform="translate(0.000000,640.000000) scale(0.100000,-0.100000)">
	<path class="st0" d="M1662.5,3891.2c-70.8,98-219,252.2-299.9,313.5c-78.9,58.8-153.2,88.4-228.1,89.9c-39.7,1-67.8-9.5-95.9-36.2
		l-16.1-15.6l-51.7,24.6c-28.6,13.6-68.3,31.1-87.9,39.2l-36.7,14.1l-8,27.6c-23.1,79.9-29.1,126.1-29.1,231.6
		c-0.5,118.6,7,170.3,34.2,228.6c21.1,46.2,48.7,79.4,142.2,171.8l76.9,76.4l30.1-44.7l30.1-44.7l-11.6-19.1
		c-8.5-15.1-11.1-26.6-11.1-54.3c0-32.2,2-38.7,22.1-75.4c12.1-22.1,36.7-59.3,54.8-82.9c30.6-40.2,208.5-221,238.1-241.6l13.1-9.5
		l-7,27.6c-4,15.6-6.5,29.6-5,31.6c3,5-13.6,99.5-26.6,150.2c-31.6,123.6-97,245.1-150.7,281.3c-14.1,9.5-23.6,11.6-55.8,11.6h-38.7
		l-33.7,50.7l-33.7,50.7l15.1,42.7c23.1,63.8,31.1,117.6,31.1,210c0,157.7-35.7,341.6-118.6,607.3c-7,22.6-7,24.1,1.5,20.6
		c22.1-9,46.2-7.5,93.4,6.5l49.7,14.1l-29.6,8.5c-52.7,14.6-80.9,13.1-101.5-4c-8.5-7-17.1-12.6-19.6-12.6
		c-2.5,0-8.5,13.1-13.6,28.6c-19.6,63.3-135.6,381.8-140.7,386.8c-0.5,1-11.6-2.5-23.6-8s-30.6-13.1-40.7-17.1l-18.6-7.5l33.2-82.4
		c110-273.8,189.9-517.4,227.6-689.7c6-27.6,11.6-52.7,12.6-56.3c1-3.5-10.5-13.1-25.6-21.6c-24.1-14.1-29.1-15.1-43.2-10.5
		c-25.1,9-69.3,6.5-94.4-5c-39.7-17.6-206.5-196.4-194.9-208.5c1-1,19.1,4.5,39.7,12.6c20.6,7.5,49.7,17.1,64.8,20.6
		c43.7,9.5,146.2,60.8,170.8,85.4c19.6,19.6,40.2,57.3,40.2,73.3c0,8.5,39.7,29.6,45.2,23.6c2-2,6.5-25.6,9.5-51.7
		c17.6-155.2,9.5-242.6-32.2-330c-14.6-31.1-28.6-48.7-101.5-123.1c-94.4-96.5-117-129.1-141.7-202.4
		c-15.1-45.2-15.1-45.2-39.2-54.8c-13.1-5.5-48.7-20.6-78.9-34.2c-48.2-21.1-55.8-23.1-62.8-17.1c-4.5,4-20.6,13.1-35.7,20.1
		c-35.7,16.6-67.8,16.6-121.6,0c-98-30.6-155.7-75.4-296.9-230.6C78.1,4418.2,7.8,4327.8,7.3,4316.7c0-2,5-2.5,11.6-1
		c43.2,12.6,134.1,33.7,174.3,41.2c77.4,14.1,240.1,71.3,327,115.5c45.2,22.6,84.4,79.4,94.9,138.1c3.5,17.6,7,34.7,7.5,37.2
		c1.5,5.5,122.6,60.3,125.6,56.8c0.5-1-0.5-24.1-3-51.7c-8-86.9,2.5-197.4,28.6-300.9c24.1-94.9,64.8-195.4,168.8-414.9l27.6-57.8
		l-19.1-40.7c-10.5-22.1-27.1-63.8-36.7-92.4l-17.6-52.2l-29.6-6c-40.7-8.5-58.3-18.6-89.4-51.2c-31.6-32.7-62.8-92.9-78.4-149.2
		c-10-35.7-11.1-53.2-11.6-158.2c-1-187.4,7.5-282.8,32.7-376.3l5.5-22.1l24.1,37.2c13.1,20.6,42.7,68.8,65.8,107.5
		c23.1,38.7,53.2,86.9,66.8,107.5c47.7,70.8,104.5,204.5,125.1,292.9c10.5,44.2,10.5,46.2,2,82.4c-10.5,44.7-32.7,89.9-52.2,109.5
		l-15.1,13.6l24.6,65.8c13.6,36.2,25.6,66.8,26.6,67.8c6,6.5,52.2-144.2,65.8-214.5c16.6-87.9,18.6-143.2,7.5-227.1
		c-11.6-91.9-28.6-184.9-55.8-310.5l-20.6-92.9l-54.8-51.7l-54.3-51.7l-26.6,5c-29.6,5.5-65.3,0.5-89.9-12.6
		c-27.6-14.1-109.5-98-138.1-140.7c-31.6-47.2-55.8-99-74.9-158.2c-7.5-23.1-21.1-59.8-31.1-80.9c-16.1-36.2-31.6-83.4-31.6-98.5
		c0-3.5,12.6,4,28.1,16.6c15.1,12.6,43.2,30.6,62.3,40.2c57.3,28.6,145.7,93.4,243.1,177.3c40.7,35.7,46.2,42.7,68.8,88.4
		c21.1,43.2,24.6,53.8,24.6,80.4c0,17.1-2,38.2-4.5,46.7c-4.5,15.6-3.5,17.1,27.6,44.2c17.6,15.6,32.2,26.6,32.2,24.1
		c0-2-13.6-61.8-30.1-132.1c-30.6-129.6-57.8-251.7-75.4-334.1c-5.5-25.1-12.1-72.8-14.6-106.5c-5.5-74.3,1-245.7,11.6-299.4
		c10-50.7,4-83.4-20.1-109c-38.7-41.2-47.7-97.5-30.1-184.4c5-22.6,9-45.7,9.5-51.2c1.5-21.1,13.1-2,38.7,63.8
		c33.2,85.9,37.7,124.6,20.1,172.3c-6,16.6-9.5,31.6-8,33.2c4.5,4.5,5.5,2.5,20.1-51.2c20.1-72.8,55.3-163.8,130.6-340.6
		c128.6-300.4,156.7-383.8,181.3-536c8-49.7,4.5-72.8-14.6-95.9c-12.6-15.1-14.6-20.1-20.1-52.7c-2.5-15.1,4.5-56.3,17.1-102.5
		l6.5-22.6l11.6,41.7c18.6,69.3,20.1,64.3,12.1-46.7c-12.1-166.3-37.2-260.7-97.5-369.2c-14.6-26.1-65.3-107.5-112-180.8
		C913,44.7,899.5,23.6,903,23.6c1,0,14.6,18.6,29.1,41.2c15.1,23.1,56.3,84.4,92.4,136.6c35.7,52.7,75.4,113,88.4,134.6l23.6,38.7
		l3.5-28.6l3.5-28.6l10,25.1c5.5,14.1,10.5,40.2,11.6,58.3c1,21.1,7.5,49.7,17.6,77.9c46.2,131.1,64.3,357.2,40.2,518.4
		c-18.6,127.1-48.2,245.1-84.9,336.6c-5.5,14.6-10.5,27.6-10.5,29.1s8.5-5,19.1-15.1c20.1-19.1,108-83.4,110.5-81.4
		c2.5,2.5-39.2,104-53.2,130.1c-18.1,33.7-45.7,56.8-78.4,66.3c-40.2,12.1-51.7,29.1-107,164.8c-83.9,206-121.1,333.1-131.6,450.6
		c-7,79.4-10,201.4-5,197.9c2.5-1.5,4.5-6.5,4.5-11.1c0-24.1,45.2-143.7,84.4-222l43.7-87.9l4,30.1c14.6,114,21.6,210,18.1,239.1
		c-15.1,110.5-24.1,130.1-71.8,153.7l-26.6,13.1l-11.1,48.2l-10.5,48.2l20.1,87.9c11.1,48.2,31.6,132.1,45.7,185.9
		c87.9,340.1,97,378.8,118.1,499.8c6.5,38.7,12.1,77.9,12.1,86.4c0,9,1.5,16.6,4,16.6c2,0,19.1-23.6,37.7-52.2l34.2-52.2l-11.6-19.6
		c-27.6-45.2-31.1-79.4-13.6-142.2c17.6-65.3,58.8-128.1,158.2-242.1c57.8-65.8,219-230.1,226.6-230.1c2.5,0-1.5,51.2-9,114
		c-20.1,166.3-23.6,188.4-42.7,253.7c-36.7,128.1-81.4,211-135.6,252.2c-39.2,30.1-60.3,37.7-103,38.2h-33.2l-50.2,76.4l-50.7,76.9
		l-3,41.7c-6.5,86.9-33.2,212-69.3,330c-14.6,48.2-27.6,80.4-119.1,288.4c-33.7,76.4-65.8,156.2-65.8,163.3c0,1,31.1-12.1,69.8-28.6
		l69.8-30.1l2-38.2c2.5-44.7,12.6-66.8,46.7-105c42.7-47.2,120.1-87.4,240.6-124.1c43.2-13.1,378.3-87.9,393.3-87.9
		C1693.2,3846.5,1686.7,3858.1,1662.5,3891.2z M911.5,2372.1c-3-2-10.5-13.6-17.6-26.6c-8-15.1-11.6-19.1-10-11.1
		c1,7,4.5,26.6,7.5,44.2c3,17.6,7.5,36.7,9.5,42.7c3.5,9.5,5,8,9.5-11.6C917.1,2379.1,917.6,2375.6,911.5,2372.1z"/>
</g>
</svg>
